<svg width="116" height="113" viewBox="0 0 116 113" fill="none" xmlns="http://www.w3.org/2000/svg">
<g clip-path="url(#clip0_1_220)">
<path d="M58.0233 113.06C89.1874 113.06 114.451 87.797 114.451 56.6329C114.451 25.4688 89.1874 0.205322 58.0233 0.205322C26.8592 0.205322 1.5957 25.4688 1.5957 56.6329C1.5957 87.797 26.8592 113.06 58.0233 113.06Z" fill="#FF4F00"/>
<path d="M91.4194 61.9188C91.0317 64.2985 89.4711 72.1986 82.8117 79.202C73.9278 88.5609 62.4945 89.4382 59.7998 89.5739H34.5433C30.9888 89.5739 28.1074 86.6925 28.1074 83.1381V68.1511C28.1074 64.5967 30.9888 61.7153 34.5433 61.7153H34.893C36.5997 61.7153 38.2364 62.3931 39.4433 63.5998L55.6024 79.755C57.1658 81.318 59.7002 81.3179 61.2634 79.7547L78.3867 62.6314C80.9086 60.1095 79.1225 55.7975 75.556 55.7975H65.383C63.1721 55.7975 61.3798 54.0052 61.3798 51.7943V41.2883C61.3798 37.7216 57.0674 35.9356 54.5456 38.4579L39.0946 53.912C37.8876 55.1193 36.2504 55.7975 34.5433 55.7975C30.9889 55.7975 28.1074 52.9161 28.1074 49.3616V30.1277C28.1074 26.5625 31.0058 23.6766 34.571 23.692L59.5914 23.7998C61.1036 23.9113 79.3318 25.5591 87.8523 40.9715C93.0964 50.471 91.7442 59.9268 91.4194 61.9188Z" fill="white"/>
</g>
<defs>
<clipPath id="clip0_1_220">
<rect width="116" height="113" fill="white"/>
</clipPath>
</defs>
</svg>
